<mxfile host="app.diagrams.net" modified="2023-10-11T14:57:18.135Z" agent="Mozilla/5.0 (X11; Ubuntu; Linux x86_64; rv:109.0) Gecko/20100101 Firefox/118.0" etag="ObehOWA2tWmFVZBIisNk" version="22.0.4" type="google" pages="2">
  <diagram name="Pagina-1" id="8xn9EjSy_cDaDyEmPlQD">
    <mxGraphModel grid="1" page="1" gridSize="10" guides="1" tooltips="1" connect="1" arrows="1" fold="1" pageScale="1" pageWidth="1169" pageHeight="1654" background="#0F0F0F" math="0" shadow="0">
      <root>
        <mxCell id="0" />
        <mxCell id="1" parent="0" />
        <mxCell id="UNnJ6Uwz9UUPNVdVUC7G-2" value="LIBRO" style="whiteSpace=wrap;html=1;align=center;" vertex="1" parent="1">
          <mxGeometry x="204" y="70" width="96" height="30" as="geometry" />
        </mxCell>
        <mxCell id="UNnJ6Uwz9UUPNVdVUC7G-7" style="edgeStyle=orthogonalEdgeStyle;rounded=0;orthogonalLoop=1;jettySize=auto;html=1;exitX=0;exitY=1;exitDx=0;exitDy=0;" edge="1" parent="1" source="UNnJ6Uwz9UUPNVdVUC7G-4">
          <mxGeometry relative="1" as="geometry">
            <mxPoint x="114" y="130" as="targetPoint" />
          </mxGeometry>
        </mxCell>
        <mxCell id="UNnJ6Uwz9UUPNVdVUC7G-8" style="edgeStyle=orthogonalEdgeStyle;rounded=0;orthogonalLoop=1;jettySize=auto;html=1;exitX=1;exitY=0.5;exitDx=0;exitDy=0;" edge="1" parent="1" source="UNnJ6Uwz9UUPNVdVUC7G-4">
          <mxGeometry relative="1" as="geometry">
            <mxPoint x="250" y="100" as="targetPoint" />
            <Array as="points">
              <mxPoint x="250" y="125" />
              <mxPoint x="250" y="100" />
            </Array>
          </mxGeometry>
        </mxCell>
        <mxCell id="UNnJ6Uwz9UUPNVdVUC7G-4" value="ID_LIBRO" style="ellipse;whiteSpace=wrap;html=1;align=center;fontStyle=4;" vertex="1" parent="1">
          <mxGeometry x="84" y="110" width="80" height="30" as="geometry" />
        </mxCell>
        <mxCell id="UNnJ6Uwz9UUPNVdVUC7G-10" value="" style="edgeStyle=orthogonalEdgeStyle;rounded=0;orthogonalLoop=1;jettySize=auto;html=1;" edge="1" parent="1" source="UNnJ6Uwz9UUPNVdVUC7G-5" target="UNnJ6Uwz9UUPNVdVUC7G-2">
          <mxGeometry relative="1" as="geometry" />
        </mxCell>
        <mxCell id="UNnJ6Uwz9UUPNVdVUC7G-5" value="TITOLO" style="ellipse;whiteSpace=wrap;html=1;align=center;" vertex="1" parent="1">
          <mxGeometry x="84" y="30" width="80" height="30" as="geometry" />
        </mxCell>
        <mxCell id="UNnJ6Uwz9UUPNVdVUC7G-48" style="edgeStyle=orthogonalEdgeStyle;rounded=0;orthogonalLoop=1;jettySize=auto;html=1;exitX=0;exitY=0.5;exitDx=0;exitDy=0;entryX=0.75;entryY=0;entryDx=0;entryDy=0;" edge="1" parent="1" source="UNnJ6Uwz9UUPNVdVUC7G-6" target="UNnJ6Uwz9UUPNVdVUC7G-2">
          <mxGeometry relative="1" as="geometry" />
        </mxCell>
        <mxCell id="UNnJ6Uwz9UUPNVdVUC7G-6" value="ANNO_PUBB" style="ellipse;whiteSpace=wrap;html=1;align=center;" vertex="1" parent="1">
          <mxGeometry x="334" y="20" width="80" height="50" as="geometry" />
        </mxCell>
        <mxCell id="WxxWHLInwzJtSzsbfnl_-33" style="edgeStyle=orthogonalEdgeStyle;rounded=0;orthogonalLoop=1;jettySize=auto;html=1;exitX=1;exitY=0.5;exitDx=0;exitDy=0;" edge="1" parent="1" source="UNnJ6Uwz9UUPNVdVUC7G-12">
          <mxGeometry relative="1" as="geometry">
            <mxPoint x="860" y="110.46153846153857" as="targetPoint" />
          </mxGeometry>
        </mxCell>
        <mxCell id="UNnJ6Uwz9UUPNVdVUC7G-12" value="AUTORE" style="rounded=1;arcSize=10;whiteSpace=wrap;html=1;align=center;" vertex="1" parent="1">
          <mxGeometry x="730" y="95" width="110" height="30" as="geometry" />
        </mxCell>
        <mxCell id="jtGgoha0Pup0hSp_dTN2-3" style="edgeStyle=orthogonalEdgeStyle;rounded=0;orthogonalLoop=1;jettySize=auto;html=1;" edge="1" parent="1" source="UNnJ6Uwz9UUPNVdVUC7G-14" target="UNnJ6Uwz9UUPNVdVUC7G-12">
          <mxGeometry relative="1" as="geometry" />
        </mxCell>
        <mxCell id="UNnJ6Uwz9UUPNVdVUC7G-14" value="NOME" style="ellipse;whiteSpace=wrap;html=1;align=center;" vertex="1" parent="1">
          <mxGeometry x="767.5" y="-55" width="80" height="30" as="geometry" />
        </mxCell>
        <mxCell id="UNnJ6Uwz9UUPNVdVUC7G-17" style="edgeStyle=orthogonalEdgeStyle;rounded=0;orthogonalLoop=1;jettySize=auto;html=1;exitX=0;exitY=0.5;exitDx=0;exitDy=0;entryX=0.653;entryY=-0.005;entryDx=0;entryDy=0;entryPerimeter=0;" edge="1" parent="1" source="UNnJ6Uwz9UUPNVdVUC7G-16" target="UNnJ6Uwz9UUPNVdVUC7G-12">
          <mxGeometry relative="1" as="geometry" />
        </mxCell>
        <mxCell id="UNnJ6Uwz9UUPNVdVUC7G-16" value="DATA_NASCITA" style="ellipse;whiteSpace=wrap;html=1;align=center;" vertex="1" parent="1">
          <mxGeometry x="840" y="25" width="100" height="30" as="geometry" />
        </mxCell>
        <mxCell id="UNnJ6Uwz9UUPNVdVUC7G-18" value="" style="edgeStyle=entityRelationEdgeStyle;fontSize=12;html=1;endArrow=ERone;endFill=1;rounded=0;" edge="1" parent="1">
          <mxGeometry width="100" height="100" relative="1" as="geometry">
            <mxPoint x="940" y="35" as="sourcePoint" />
            <mxPoint x="1000" y="-15" as="targetPoint" />
          </mxGeometry>
        </mxCell>
        <mxCell id="UNnJ6Uwz9UUPNVdVUC7G-19" value="" style="edgeStyle=entityRelationEdgeStyle;fontSize=12;html=1;endArrow=ERone;endFill=1;rounded=0;" edge="1" parent="1">
          <mxGeometry width="100" height="100" relative="1" as="geometry">
            <mxPoint x="940" y="39.289999999999964" as="sourcePoint" />
            <mxPoint x="1020" y="39" as="targetPoint" />
          </mxGeometry>
        </mxCell>
        <mxCell id="UNnJ6Uwz9UUPNVdVUC7G-20" value="" style="edgeStyle=entityRelationEdgeStyle;fontSize=12;html=1;endArrow=ERone;endFill=1;rounded=0;" edge="1" parent="1">
          <mxGeometry width="100" height="100" relative="1" as="geometry">
            <mxPoint x="940" y="45" as="sourcePoint" />
            <mxPoint x="1000" y="105" as="targetPoint" />
          </mxGeometry>
        </mxCell>
        <mxCell id="UNnJ6Uwz9UUPNVdVUC7G-21" value="GG" style="ellipse;whiteSpace=wrap;html=1;align=center;" vertex="1" parent="1">
          <mxGeometry x="990" y="-25" width="90" height="30" as="geometry" />
        </mxCell>
        <mxCell id="UNnJ6Uwz9UUPNVdVUC7G-22" value="MM" style="ellipse;whiteSpace=wrap;html=1;align=center;" vertex="1" parent="1">
          <mxGeometry x="1010" y="25" width="90" height="30" as="geometry" />
        </mxCell>
        <mxCell id="UNnJ6Uwz9UUPNVdVUC7G-23" value="AAAA" style="ellipse;whiteSpace=wrap;html=1;align=center;" vertex="1" parent="1">
          <mxGeometry x="990" y="85" width="90" height="30" as="geometry" />
        </mxCell>
        <mxCell id="UNnJ6Uwz9UUPNVdVUC7G-27" style="edgeStyle=orthogonalEdgeStyle;rounded=0;orthogonalLoop=1;jettySize=auto;html=1;exitX=0.5;exitY=0;exitDx=0;exitDy=0;entryX=0.5;entryY=1;entryDx=0;entryDy=0;" edge="1" parent="1" source="UNnJ6Uwz9UUPNVdVUC7G-24" target="UNnJ6Uwz9UUPNVdVUC7G-12">
          <mxGeometry relative="1" as="geometry">
            <Array as="points">
              <mxPoint x="785" y="185" />
            </Array>
          </mxGeometry>
        </mxCell>
        <mxCell id="UNnJ6Uwz9UUPNVdVUC7G-24" value="LUOGO_NASCITA" style="ellipse;whiteSpace=wrap;html=1;align=center;" vertex="1" parent="1">
          <mxGeometry x="722.5" y="165" width="125" height="30" as="geometry" />
        </mxCell>
        <mxCell id="UNnJ6Uwz9UUPNVdVUC7G-46" style="edgeStyle=orthogonalEdgeStyle;rounded=0;orthogonalLoop=1;jettySize=auto;html=1;exitX=0;exitY=0.5;exitDx=0;exitDy=0;entryX=0.75;entryY=1;entryDx=0;entryDy=0;" edge="1" parent="1" source="UNnJ6Uwz9UUPNVdVUC7G-44" target="UNnJ6Uwz9UUPNVdVUC7G-2">
          <mxGeometry relative="1" as="geometry" />
        </mxCell>
        <mxCell id="UNnJ6Uwz9UUPNVdVUC7G-44" value="LINGUA" style="ellipse;whiteSpace=wrap;html=1;align=center;" vertex="1" parent="1">
          <mxGeometry x="334" y="110" width="80" height="30" as="geometry" />
        </mxCell>
        <mxCell id="UNnJ6Uwz9UUPNVdVUC7G-51" value="SUCCURSALE" style="whiteSpace=wrap;html=1;align=center;" vertex="1" parent="1">
          <mxGeometry x="895" y="487.5" width="96" height="30" as="geometry" />
        </mxCell>
        <mxCell id="UNnJ6Uwz9UUPNVdVUC7G-72" style="edgeStyle=orthogonalEdgeStyle;rounded=0;orthogonalLoop=1;jettySize=auto;html=1;exitX=0;exitY=0.5;exitDx=0;exitDy=0;entryX=0.5;entryY=0;entryDx=0;entryDy=0;" edge="1" parent="1" source="UNnJ6Uwz9UUPNVdVUC7G-53" target="UNnJ6Uwz9UUPNVdVUC7G-51">
          <mxGeometry relative="1" as="geometry" />
        </mxCell>
        <mxCell id="UNnJ6Uwz9UUPNVdVUC7G-53" value="ID_SUCCURSALE" style="ellipse;whiteSpace=wrap;html=1;align=center;fontStyle=4;" vertex="1" parent="1">
          <mxGeometry x="1025" y="427.5" width="120" height="30" as="geometry" />
        </mxCell>
        <mxCell id="UNnJ6Uwz9UUPNVdVUC7G-71" style="edgeStyle=orthogonalEdgeStyle;rounded=0;orthogonalLoop=1;jettySize=auto;html=1;exitX=0;exitY=0.5;exitDx=0;exitDy=0;entryX=0.61;entryY=1.086;entryDx=0;entryDy=0;entryPerimeter=0;" edge="1" parent="1" source="UNnJ6Uwz9UUPNVdVUC7G-54" target="UNnJ6Uwz9UUPNVdVUC7G-51">
          <mxGeometry relative="1" as="geometry" />
        </mxCell>
        <mxCell id="UNnJ6Uwz9UUPNVdVUC7G-54" value="NOME" style="ellipse;whiteSpace=wrap;html=1;align=center;" vertex="1" parent="1">
          <mxGeometry x="1025" y="547.5" width="80" height="30" as="geometry" />
        </mxCell>
        <mxCell id="UNnJ6Uwz9UUPNVdVUC7G-63" style="edgeStyle=orthogonalEdgeStyle;rounded=0;orthogonalLoop=1;jettySize=auto;html=1;exitX=0.5;exitY=0;exitDx=0;exitDy=0;entryX=1;entryY=1;entryDx=0;entryDy=0;" edge="1" parent="1" source="UNnJ6Uwz9UUPNVdVUC7G-55" target="UNnJ6Uwz9UUPNVdVUC7G-56">
          <mxGeometry relative="1" as="geometry" />
        </mxCell>
        <mxCell id="UNnJ6Uwz9UUPNVdVUC7G-64" style="edgeStyle=orthogonalEdgeStyle;rounded=0;orthogonalLoop=1;jettySize=auto;html=1;exitX=0.5;exitY=1;exitDx=0;exitDy=0;" edge="1" parent="1" source="UNnJ6Uwz9UUPNVdVUC7G-51">
          <mxGeometry relative="1" as="geometry">
            <mxPoint x="945" y="647.5" as="targetPoint" />
          </mxGeometry>
        </mxCell>
        <mxCell id="UNnJ6Uwz9UUPNVdVUC7G-65" style="edgeStyle=orthogonalEdgeStyle;rounded=0;orthogonalLoop=1;jettySize=auto;html=1;exitX=0;exitY=1;exitDx=0;exitDy=0;entryX=1;entryY=0.5;entryDx=0;entryDy=0;" edge="1" parent="1" source="UNnJ6Uwz9UUPNVdVUC7G-55" target="UNnJ6Uwz9UUPNVdVUC7G-58">
          <mxGeometry relative="1" as="geometry">
            <Array as="points">
              <mxPoint x="786" y="592.5" />
            </Array>
          </mxGeometry>
        </mxCell>
        <mxCell id="UNnJ6Uwz9UUPNVdVUC7G-69" style="edgeStyle=orthogonalEdgeStyle;rounded=0;orthogonalLoop=1;jettySize=auto;html=1;exitX=0;exitY=0;exitDx=0;exitDy=0;entryX=1;entryY=0.5;entryDx=0;entryDy=0;" edge="1" parent="1" source="UNnJ6Uwz9UUPNVdVUC7G-55" target="UNnJ6Uwz9UUPNVdVUC7G-57">
          <mxGeometry relative="1" as="geometry">
            <Array as="points">
              <mxPoint x="786" y="532.5" />
            </Array>
          </mxGeometry>
        </mxCell>
        <mxCell id="UNnJ6Uwz9UUPNVdVUC7G-70" style="edgeStyle=orthogonalEdgeStyle;rounded=0;orthogonalLoop=1;jettySize=auto;html=1;exitX=1;exitY=0.5;exitDx=0;exitDy=0;entryX=0.25;entryY=1;entryDx=0;entryDy=0;" edge="1" parent="1" source="UNnJ6Uwz9UUPNVdVUC7G-55" target="UNnJ6Uwz9UUPNVdVUC7G-51">
          <mxGeometry relative="1" as="geometry" />
        </mxCell>
        <mxCell id="z4OgnN-XpLlXaeHL5etn-4" style="edgeStyle=orthogonalEdgeStyle;rounded=0;orthogonalLoop=1;jettySize=auto;html=1;exitX=0.5;exitY=1;exitDx=0;exitDy=0;entryX=1;entryY=0.5;entryDx=0;entryDy=0;" edge="1" parent="1" source="UNnJ6Uwz9UUPNVdVUC7G-55" target="z4OgnN-XpLlXaeHL5etn-3">
          <mxGeometry relative="1" as="geometry" />
        </mxCell>
        <mxCell id="UNnJ6Uwz9UUPNVdVUC7G-55" value="INDIRIZZO" style="ellipse;whiteSpace=wrap;html=1;align=center;" vertex="1" parent="1">
          <mxGeometry x="775" y="547.5" width="80" height="30" as="geometry" />
        </mxCell>
        <mxCell id="UNnJ6Uwz9UUPNVdVUC7G-56" value="VIA/VIALE..." style="ellipse;whiteSpace=wrap;html=1;align=center;" vertex="1" parent="1">
          <mxGeometry x="745" y="477.5" width="80" height="30" as="geometry" />
        </mxCell>
        <mxCell id="UNnJ6Uwz9UUPNVdVUC7G-57" value="NOME" style="ellipse;whiteSpace=wrap;html=1;align=center;" vertex="1" parent="1">
          <mxGeometry x="675" y="517.5" width="80" height="30" as="geometry" />
        </mxCell>
        <mxCell id="UNnJ6Uwz9UUPNVdVUC7G-58" value="NUM_CIVICO" style="ellipse;whiteSpace=wrap;html=1;align=center;" vertex="1" parent="1">
          <mxGeometry x="660" y="577.5" width="90" height="30" as="geometry" />
        </mxCell>
        <mxCell id="UNnJ6Uwz9UUPNVdVUC7G-59" value="CITTA&#39;" style="ellipse;whiteSpace=wrap;html=1;align=center;" vertex="1" parent="1">
          <mxGeometry x="900" y="632.5" width="80" height="30" as="geometry" />
        </mxCell>
        <mxCell id="WxxWHLInwzJtSzsbfnl_-15" style="edgeStyle=orthogonalEdgeStyle;rounded=0;orthogonalLoop=1;jettySize=auto;html=1;exitX=0;exitY=0.75;exitDx=0;exitDy=0;entryX=0.5;entryY=0;entryDx=0;entryDy=0;" edge="1" parent="1" source="WxxWHLInwzJtSzsbfnl_-1">
          <mxGeometry relative="1" as="geometry">
            <mxPoint x="90" y="595.0000000000005" as="targetPoint" />
          </mxGeometry>
        </mxCell>
        <mxCell id="WxxWHLInwzJtSzsbfnl_-16" style="edgeStyle=orthogonalEdgeStyle;rounded=0;orthogonalLoop=1;jettySize=auto;html=1;exitX=0;exitY=0.25;exitDx=0;exitDy=0;entryX=0.5;entryY=1;entryDx=0;entryDy=0;" edge="1" parent="1" source="WxxWHLInwzJtSzsbfnl_-1" target="WxxWHLInwzJtSzsbfnl_-3">
          <mxGeometry relative="1" as="geometry" />
        </mxCell>
        <mxCell id="WxxWHLInwzJtSzsbfnl_-19" style="edgeStyle=orthogonalEdgeStyle;rounded=0;orthogonalLoop=1;jettySize=auto;html=1;exitX=0.5;exitY=1;exitDx=0;exitDy=0;entryX=0.5;entryY=0;entryDx=0;entryDy=0;" edge="1" parent="1" source="WxxWHLInwzJtSzsbfnl_-1" target="WxxWHLInwzJtSzsbfnl_-4">
          <mxGeometry relative="1" as="geometry" />
        </mxCell>
        <mxCell id="WxxWHLInwzJtSzsbfnl_-25" style="edgeStyle=orthogonalEdgeStyle;rounded=0;orthogonalLoop=1;jettySize=auto;html=1;exitX=1;exitY=0.25;exitDx=0;exitDy=0;" edge="1" parent="1" source="WxxWHLInwzJtSzsbfnl_-1">
          <mxGeometry relative="1" as="geometry">
            <mxPoint x="330" y="514.9999999999998" as="targetPoint" />
          </mxGeometry>
        </mxCell>
        <mxCell id="WxxWHLInwzJtSzsbfnl_-27" style="edgeStyle=orthogonalEdgeStyle;rounded=0;orthogonalLoop=1;jettySize=auto;html=1;exitX=1;exitY=0.5;exitDx=0;exitDy=0;entryX=0.5;entryY=0;entryDx=0;entryDy=0;" edge="1" parent="1" source="WxxWHLInwzJtSzsbfnl_-1" target="WxxWHLInwzJtSzsbfnl_-10">
          <mxGeometry relative="1" as="geometry" />
        </mxCell>
        <mxCell id="WxxWHLInwzJtSzsbfnl_-1" value="UTENTE" style="whiteSpace=wrap;html=1;align=center;" vertex="1" parent="1">
          <mxGeometry x="160" y="525" width="100" height="40" as="geometry" />
        </mxCell>
        <mxCell id="WxxWHLInwzJtSzsbfnl_-2" value="NOME" style="ellipse;whiteSpace=wrap;html=1;align=center;" vertex="1" parent="1">
          <mxGeometry x="40" y="595" width="100" height="30" as="geometry" />
        </mxCell>
        <mxCell id="WxxWHLInwzJtSzsbfnl_-3" value="COGNOME" style="ellipse;whiteSpace=wrap;html=1;align=center;" vertex="1" parent="1">
          <mxGeometry x="50" y="475" width="100" height="30" as="geometry" />
        </mxCell>
        <mxCell id="WxxWHLInwzJtSzsbfnl_-21" style="edgeStyle=orthogonalEdgeStyle;rounded=0;orthogonalLoop=1;jettySize=auto;html=1;exitX=0;exitY=0.5;exitDx=0;exitDy=0;entryX=0.5;entryY=0;entryDx=0;entryDy=0;" edge="1" parent="1" source="WxxWHLInwzJtSzsbfnl_-4" target="WxxWHLInwzJtSzsbfnl_-5">
          <mxGeometry relative="1" as="geometry" />
        </mxCell>
        <mxCell id="WxxWHLInwzJtSzsbfnl_-22" style="edgeStyle=orthogonalEdgeStyle;rounded=0;orthogonalLoop=1;jettySize=auto;html=1;exitX=0.5;exitY=1;exitDx=0;exitDy=0;entryX=0.5;entryY=0;entryDx=0;entryDy=0;" edge="1" parent="1" source="WxxWHLInwzJtSzsbfnl_-4" target="WxxWHLInwzJtSzsbfnl_-6">
          <mxGeometry relative="1" as="geometry" />
        </mxCell>
        <mxCell id="WxxWHLInwzJtSzsbfnl_-23" style="edgeStyle=orthogonalEdgeStyle;rounded=0;orthogonalLoop=1;jettySize=auto;html=1;exitX=1;exitY=0.5;exitDx=0;exitDy=0;entryX=0.58;entryY=-0.075;entryDx=0;entryDy=0;entryPerimeter=0;" edge="1" parent="1" source="WxxWHLInwzJtSzsbfnl_-4" target="WxxWHLInwzJtSzsbfnl_-7">
          <mxGeometry relative="1" as="geometry" />
        </mxCell>
        <mxCell id="BEGDv0InBaiPeitPuSm3-2" style="edgeStyle=orthogonalEdgeStyle;rounded=0;orthogonalLoop=1;jettySize=auto;html=1;exitX=0;exitY=1;exitDx=0;exitDy=0;entryX=1;entryY=0;entryDx=0;entryDy=0;" edge="1" parent="1" source="WxxWHLInwzJtSzsbfnl_-4" target="BEGDv0InBaiPeitPuSm3-1">
          <mxGeometry relative="1" as="geometry" />
        </mxCell>
        <mxCell id="WxxWHLInwzJtSzsbfnl_-4" value="INDIRIZZO" style="ellipse;whiteSpace=wrap;html=1;align=center;" vertex="1" parent="1">
          <mxGeometry x="180" y="625" width="100" height="30" as="geometry" />
        </mxCell>
        <mxCell id="WxxWHLInwzJtSzsbfnl_-5" value="VIA/VIALE" style="ellipse;whiteSpace=wrap;html=1;align=center;" vertex="1" parent="1">
          <mxGeometry x="64" y="675" width="100" height="30" as="geometry" />
        </mxCell>
        <mxCell id="WxxWHLInwzJtSzsbfnl_-6" value="NOME_VIA" style="ellipse;whiteSpace=wrap;html=1;align=center;" vertex="1" parent="1">
          <mxGeometry x="170" y="735" width="100" height="30" as="geometry" />
        </mxCell>
        <mxCell id="WxxWHLInwzJtSzsbfnl_-7" value="NUMERO_CIVICO" style="ellipse;whiteSpace=wrap;html=1;align=center;" vertex="1" parent="1">
          <mxGeometry x="275" y="675" width="110" height="30" as="geometry" />
        </mxCell>
        <mxCell id="WxxWHLInwzJtSzsbfnl_-30" style="edgeStyle=orthogonalEdgeStyle;rounded=0;orthogonalLoop=1;jettySize=auto;html=1;exitX=0.5;exitY=1;exitDx=0;exitDy=0;" edge="1" parent="1" source="WxxWHLInwzJtSzsbfnl_-10">
          <mxGeometry relative="1" as="geometry">
            <mxPoint x="400" y="625.0000000000002" as="targetPoint" />
          </mxGeometry>
        </mxCell>
        <mxCell id="WxxWHLInwzJtSzsbfnl_-31" style="edgeStyle=orthogonalEdgeStyle;rounded=0;orthogonalLoop=1;jettySize=auto;html=1;exitX=1;exitY=0.5;exitDx=0;exitDy=0;entryX=0.5;entryY=1;entryDx=0;entryDy=0;" edge="1" parent="1" source="WxxWHLInwzJtSzsbfnl_-10" target="WxxWHLInwzJtSzsbfnl_-11">
          <mxGeometry relative="1" as="geometry" />
        </mxCell>
        <mxCell id="WxxWHLInwzJtSzsbfnl_-10" value="NUMERO_TEL" style="ellipse;whiteSpace=wrap;html=1;align=center;" vertex="1" parent="1">
          <mxGeometry x="305" y="572" width="100" height="30" as="geometry" />
        </mxCell>
        <mxCell id="WxxWHLInwzJtSzsbfnl_-11" value="PREFISSO" style="ellipse;whiteSpace=wrap;html=1;align=center;" vertex="1" parent="1">
          <mxGeometry x="405" y="525" width="100" height="30" as="geometry" />
        </mxCell>
        <mxCell id="WxxWHLInwzJtSzsbfnl_-12" value="NUMERO" style="ellipse;whiteSpace=wrap;html=1;align=center;" vertex="1" parent="1">
          <mxGeometry x="405" y="605" width="100" height="30" as="geometry" />
        </mxCell>
        <mxCell id="WxxWHLInwzJtSzsbfnl_-13" value="NUM_MATRICOLA" style="ellipse;whiteSpace=wrap;html=1;align=center;fontStyle=4;" vertex="1" parent="1">
          <mxGeometry x="270" y="470" width="120" height="40" as="geometry" />
        </mxCell>
        <mxCell id="WxxWHLInwzJtSzsbfnl_-32" value="ID_AUTORE" style="ellipse;whiteSpace=wrap;html=1;align=center;fontStyle=4;" vertex="1" parent="1">
          <mxGeometry x="862" y="95" width="94" height="30" as="geometry" />
        </mxCell>
        <mxCell id="WxxWHLInwzJtSzsbfnl_-34" value="E&#39;_SCRITTO" style="shape=rhombus;perimeter=rhombusPerimeter;whiteSpace=wrap;html=1;align=center;" vertex="1" parent="1">
          <mxGeometry x="490" y="65" width="120" height="60" as="geometry" />
        </mxCell>
        <mxCell id="WxxWHLInwzJtSzsbfnl_-37" value="" style="endArrow=none;html=1;rounded=0;entryX=0;entryY=0.5;entryDx=0;entryDy=0;" edge="1" parent="1" target="WxxWHLInwzJtSzsbfnl_-34">
          <mxGeometry relative="1" as="geometry">
            <mxPoint x="300" y="83.45999999999998" as="sourcePoint" />
            <mxPoint x="460" y="83.45999999999998" as="targetPoint" />
            <Array as="points" />
          </mxGeometry>
        </mxCell>
        <mxCell id="WxxWHLInwzJtSzsbfnl_-53" value="1,N" style="edgeLabel;html=1;align=center;verticalAlign=middle;resizable=0;points=[];" connectable="0" vertex="1" parent="WxxWHLInwzJtSzsbfnl_-37">
          <mxGeometry x="0.3515" y="2" relative="1" as="geometry">
            <mxPoint as="offset" />
          </mxGeometry>
        </mxCell>
        <mxCell id="WxxWHLInwzJtSzsbfnl_-38" value="" style="endArrow=none;html=1;rounded=0;entryX=0;entryY=0.5;entryDx=0;entryDy=0;exitX=1;exitY=0.5;exitDx=0;exitDy=0;" edge="1" parent="1" source="WxxWHLInwzJtSzsbfnl_-34">
          <mxGeometry relative="1" as="geometry">
            <mxPoint x="540" y="98.45999999999998" as="sourcePoint" />
            <mxPoint x="730" y="110" as="targetPoint" />
            <Array as="points" />
          </mxGeometry>
        </mxCell>
        <mxCell id="WxxWHLInwzJtSzsbfnl_-51" value="1,N" style="edgeLabel;html=1;align=center;verticalAlign=middle;resizable=0;points=[];" connectable="0" vertex="1" parent="WxxWHLInwzJtSzsbfnl_-38">
          <mxGeometry x="-0.3958" relative="1" as="geometry">
            <mxPoint as="offset" />
          </mxGeometry>
        </mxCell>
        <mxCell id="WxxWHLInwzJtSzsbfnl_-40" value="" style="endArrow=none;html=1;rounded=0;exitX=0.632;exitY=1.041;exitDx=0;exitDy=0;exitPerimeter=0;entryX=0.5;entryY=0;entryDx=0;entryDy=0;" edge="1" parent="1" source="UNnJ6Uwz9UUPNVdVUC7G-2">
          <mxGeometry relative="1" as="geometry">
            <mxPoint x="204" y="210" as="sourcePoint" />
            <mxPoint x="230" y="280" as="targetPoint" />
            <Array as="points" />
          </mxGeometry>
        </mxCell>
        <mxCell id="WxxWHLInwzJtSzsbfnl_-70" value="1,N" style="edgeLabel;html=1;align=center;verticalAlign=middle;resizable=0;points=[];" connectable="0" vertex="1" parent="WxxWHLInwzJtSzsbfnl_-40">
          <mxGeometry x="-0.2986" relative="1" as="geometry">
            <mxPoint as="offset" />
          </mxGeometry>
        </mxCell>
        <mxCell id="WxxWHLInwzJtSzsbfnl_-41" value="" style="endArrow=none;html=1;rounded=0;entryX=0.5;entryY=0;entryDx=0;entryDy=0;" edge="1" parent="1" target="WxxWHLInwzJtSzsbfnl_-1">
          <mxGeometry relative="1" as="geometry">
            <mxPoint x="230" y="338.46" as="sourcePoint" />
            <mxPoint x="420" y="350" as="targetPoint" />
            <Array as="points" />
          </mxGeometry>
        </mxCell>
        <mxCell id="WxxWHLInwzJtSzsbfnl_-55" value="0,N" style="edgeLabel;html=1;align=center;verticalAlign=middle;resizable=0;points=[];" connectable="0" vertex="1" parent="WxxWHLInwzJtSzsbfnl_-41">
          <mxGeometry x="0.1968" y="1" relative="1" as="geometry">
            <mxPoint as="offset" />
          </mxGeometry>
        </mxCell>
        <mxCell id="WxxWHLInwzJtSzsbfnl_-42" value="" style="endArrow=none;html=1;rounded=0;entryX=0;entryY=0.5;entryDx=0;entryDy=0;" edge="1" parent="1" target="WxxWHLInwzJtSzsbfnl_-43">
          <mxGeometry relative="1" as="geometry">
            <mxPoint x="270" y="100" as="sourcePoint" />
            <mxPoint x="400" y="240" as="targetPoint" />
            <Array as="points" />
          </mxGeometry>
        </mxCell>
        <mxCell id="WxxWHLInwzJtSzsbfnl_-44" value="0,N" style="edgeLabel;html=1;align=center;verticalAlign=middle;resizable=0;points=[];" connectable="0" vertex="1" parent="WxxWHLInwzJtSzsbfnl_-42">
          <mxGeometry x="0.4112" y="7" relative="1" as="geometry">
            <mxPoint y="1" as="offset" />
          </mxGeometry>
        </mxCell>
        <mxCell id="WxxWHLInwzJtSzsbfnl_-43" value="E&#39;_SITUATO" style="shape=rhombus;perimeter=rhombusPerimeter;whiteSpace=wrap;html=1;align=center;" vertex="1" parent="1">
          <mxGeometry x="525" y="265" width="120" height="60" as="geometry" />
        </mxCell>
        <mxCell id="WxxWHLInwzJtSzsbfnl_-45" value="" style="endArrow=none;html=1;rounded=0;entryX=0;entryY=0;entryDx=0;entryDy=0;exitX=1;exitY=0.5;exitDx=0;exitDy=0;" edge="1" parent="1" source="WxxWHLInwzJtSzsbfnl_-43" target="UNnJ6Uwz9UUPNVdVUC7G-51">
          <mxGeometry relative="1" as="geometry">
            <mxPoint x="550" y="328.46" as="sourcePoint" />
            <mxPoint x="740" y="340" as="targetPoint" />
            <Array as="points" />
          </mxGeometry>
        </mxCell>
        <mxCell id="WxxWHLInwzJtSzsbfnl_-72" value="0,1" style="edgeLabel;html=1;align=center;verticalAlign=middle;resizable=0;points=[];" connectable="0" vertex="1" parent="WxxWHLInwzJtSzsbfnl_-45">
          <mxGeometry x="0.6542" y="1" relative="1" as="geometry">
            <mxPoint x="-48" y="48" as="offset" />
          </mxGeometry>
        </mxCell>
        <mxCell id="WxxWHLInwzJtSzsbfnl_-49" value="DATA_USCITA" style="ellipse;whiteSpace=wrap;html=1;align=center;" vertex="1" parent="1">
          <mxGeometry x="30" y="280" width="100" height="30" as="geometry" />
        </mxCell>
        <mxCell id="WxxWHLInwzJtSzsbfnl_-54" value="N:M" style="text;html=1;align=center;verticalAlign=middle;resizable=0;points=[];autosize=1;strokeColor=none;fillColor=none;" vertex="1" parent="1">
          <mxGeometry x="525" y="35" width="50" height="30" as="geometry" />
        </mxCell>
        <mxCell id="BlHpPWPm3in_sirCYIMG-3" style="edgeStyle=none;curved=1;rounded=0;orthogonalLoop=1;jettySize=auto;html=1;exitX=1;exitY=1;exitDx=0;exitDy=0;entryX=0;entryY=0.5;entryDx=0;entryDy=0;fontSize=12;startSize=8;endSize=8;" edge="1" parent="1">
          <mxGeometry relative="1" as="geometry">
            <mxPoint x="260" y="325" as="sourcePoint" />
            <mxPoint x="290" y="365" as="targetPoint" />
          </mxGeometry>
        </mxCell>
        <mxCell id="WxxWHLInwzJtSzsbfnl_-71" value="N:M" style="text;html=1;align=center;verticalAlign=middle;resizable=0;points=[];autosize=1;strokeColor=none;fillColor=none;" vertex="1" parent="1">
          <mxGeometry x="220" y="260" width="50" height="30" as="geometry" />
        </mxCell>
        <mxCell id="WxxWHLInwzJtSzsbfnl_-73" value="N:1" style="text;html=1;align=center;verticalAlign=middle;resizable=0;points=[];autosize=1;strokeColor=none;fillColor=none;" vertex="1" parent="1">
          <mxGeometry x="565" y="220" width="40" height="30" as="geometry" />
        </mxCell>
        <mxCell id="BlHpPWPm3in_sirCYIMG-2" value="" style="edgeStyle=none;curved=1;rounded=0;orthogonalLoop=1;jettySize=auto;html=1;fontSize=12;startSize=8;endSize=8;" edge="1" parent="1" source="BlHpPWPm3in_sirCYIMG-1" target="UNnJ6Uwz9UUPNVdVUC7G-2">
          <mxGeometry relative="1" as="geometry" />
        </mxCell>
        <mxCell id="BlHpPWPm3in_sirCYIMG-1" value="ISBN" style="ellipse;whiteSpace=wrap;html=1;align=center;" vertex="1" parent="1">
          <mxGeometry x="80" y="70" width="80" height="30" as="geometry" />
        </mxCell>
        <mxCell id="KhZJ0qZrGZivFt0utCCh-1" style="edgeStyle=orthogonalEdgeStyle;rounded=0;orthogonalLoop=1;jettySize=auto;html=1;exitX=0;exitY=0;exitDx=0;exitDy=0;entryX=1;entryY=0.5;entryDx=0;entryDy=0;" edge="1" parent="1" source="5_sr5E65MJaH3Ib-G2hv-1" target="WxxWHLInwzJtSzsbfnl_-49">
          <mxGeometry relative="1" as="geometry" />
        </mxCell>
        <mxCell id="5_sr5E65MJaH3Ib-G2hv-1" value="PRENDE" style="shape=rhombus;perimeter=rhombusPerimeter;whiteSpace=wrap;html=1;align=center;fontSize=16;" vertex="1" parent="1">
          <mxGeometry x="170" y="280" width="120" height="60" as="geometry" />
        </mxCell>
        <mxCell id="BEGDv0InBaiPeitPuSm3-1" value="CAP" style="ellipse;whiteSpace=wrap;html=1;align=center;" vertex="1" parent="1">
          <mxGeometry x="115" y="710" width="65" height="30" as="geometry" />
        </mxCell>
        <mxCell id="z4OgnN-XpLlXaeHL5etn-2" value="DATA_RESTITUZIONE" style="ellipse;whiteSpace=wrap;html=1;" vertex="1" parent="1">
          <mxGeometry x="290" y="340" width="166" height="40" as="geometry" />
        </mxCell>
        <mxCell id="z4OgnN-XpLlXaeHL5etn-3" value="CAP" style="ellipse;whiteSpace=wrap;html=1;" vertex="1" parent="1">
          <mxGeometry x="680" y="622.5" width="100" height="30" as="geometry" />
        </mxCell>
        <mxCell id="jtGgoha0Pup0hSp_dTN2-2" style="edgeStyle=orthogonalEdgeStyle;rounded=0;orthogonalLoop=1;jettySize=auto;html=1;entryX=0.25;entryY=0;entryDx=0;entryDy=0;" edge="1" parent="1" source="jtGgoha0Pup0hSp_dTN2-1" target="UNnJ6Uwz9UUPNVdVUC7G-12">
          <mxGeometry relative="1" as="geometry">
            <mxPoint x="770" y="-30" as="targetPoint" />
          </mxGeometry>
        </mxCell>
        <mxCell id="jtGgoha0Pup0hSp_dTN2-1" value="COGNOME" style="ellipse;whiteSpace=wrap;html=1;" vertex="1" parent="1">
          <mxGeometry x="600" y="-45" width="110" height="35" as="geometry" />
        </mxCell>
        <mxCell id="jtGgoha0Pup0hSp_dTN2-5" value="0:1" style="text;html=1;strokeColor=none;fillColor=none;align=center;verticalAlign=middle;whiteSpace=wrap;rounded=0;" vertex="1" parent="1">
          <mxGeometry x="745" y="380" width="60" height="30" as="geometry" />
        </mxCell>
      </root>
    </mxGraphModel>
  </diagram>
  <diagram id="UEaon1iB9aymF4f9Gg3m" name="Pagina-2">
    <mxGraphModel grid="1" page="1" gridSize="10" guides="1" tooltips="1" connect="1" arrows="1" fold="1" pageScale="1" pageWidth="1169" pageHeight="1654" math="0" shadow="0">
      <root>
        <mxCell id="0" />
        <mxCell id="1" parent="0" />
        <mxCell id="6c_MEM22K-Nu2wiZAlEg-2" value="LIBRO" style="shape=table;startSize=30;container=1;collapsible=0;childLayout=tableLayout;" vertex="1" parent="1">
          <mxGeometry x="30" y="40" width="640" height="70" as="geometry" />
        </mxCell>
        <mxCell id="6c_MEM22K-Nu2wiZAlEg-3" value="" style="shape=tableRow;horizontal=0;startSize=0;swimlaneHead=0;swimlaneBody=0;strokeColor=inherit;top=0;left=0;bottom=0;right=0;collapsible=0;dropTarget=0;fillColor=none;points=[[0,0.5],[1,0.5]];portConstraint=eastwest;" vertex="1" parent="6c_MEM22K-Nu2wiZAlEg-2">
          <mxGeometry y="30" width="640" height="40" as="geometry" />
        </mxCell>
        <mxCell id="6c_MEM22K-Nu2wiZAlEg-4" value="&lt;u&gt;ID_LIBRO&lt;/u&gt;" style="shape=partialRectangle;html=1;whiteSpace=wrap;connectable=0;strokeColor=inherit;overflow=hidden;fillColor=none;top=0;left=0;bottom=0;right=0;pointerEvents=1;" vertex="1" parent="6c_MEM22K-Nu2wiZAlEg-3">
          <mxGeometry width="107" height="40" as="geometry">
            <mxRectangle width="107" height="40" as="alternateBounds" />
          </mxGeometry>
        </mxCell>
        <mxCell id="6c_MEM22K-Nu2wiZAlEg-5" value="IDSUCCURSALE" style="shape=partialRectangle;html=1;whiteSpace=wrap;connectable=0;strokeColor=inherit;overflow=hidden;fillColor=none;top=0;left=0;bottom=0;right=0;pointerEvents=1;" vertex="1" parent="6c_MEM22K-Nu2wiZAlEg-3">
          <mxGeometry x="107" width="106" height="40" as="geometry">
            <mxRectangle width="106" height="40" as="alternateBounds" />
          </mxGeometry>
        </mxCell>
        <mxCell id="6c_MEM22K-Nu2wiZAlEg-6" value="TITOLO" style="shape=partialRectangle;html=1;whiteSpace=wrap;connectable=0;strokeColor=inherit;overflow=hidden;fillColor=none;top=0;left=0;bottom=0;right=0;pointerEvents=1;" vertex="1" parent="6c_MEM22K-Nu2wiZAlEg-3">
          <mxGeometry x="213" width="107" height="40" as="geometry">
            <mxRectangle width="107" height="40" as="alternateBounds" />
          </mxGeometry>
        </mxCell>
        <mxCell id="6c_MEM22K-Nu2wiZAlEg-7" value="ISBN" style="shape=partialRectangle;html=1;whiteSpace=wrap;connectable=0;strokeColor=inherit;overflow=hidden;fillColor=none;top=0;left=0;bottom=0;right=0;pointerEvents=1;" vertex="1" parent="6c_MEM22K-Nu2wiZAlEg-3">
          <mxGeometry x="320" width="107" height="40" as="geometry">
            <mxRectangle width="107" height="40" as="alternateBounds" />
          </mxGeometry>
        </mxCell>
        <mxCell id="6c_MEM22K-Nu2wiZAlEg-8" value="ANNO_PUB" style="shape=partialRectangle;html=1;whiteSpace=wrap;connectable=0;strokeColor=inherit;overflow=hidden;fillColor=none;top=0;left=0;bottom=0;right=0;pointerEvents=1;" vertex="1" parent="6c_MEM22K-Nu2wiZAlEg-3">
          <mxGeometry x="427" width="106" height="40" as="geometry">
            <mxRectangle width="106" height="40" as="alternateBounds" />
          </mxGeometry>
        </mxCell>
        <mxCell id="6c_MEM22K-Nu2wiZAlEg-9" value="LINGUA" style="shape=partialRectangle;html=1;whiteSpace=wrap;connectable=0;strokeColor=inherit;overflow=hidden;fillColor=none;top=0;left=0;bottom=0;right=0;pointerEvents=1;" vertex="1" parent="6c_MEM22K-Nu2wiZAlEg-3">
          <mxGeometry x="533" width="107" height="40" as="geometry">
            <mxRectangle width="107" height="40" as="alternateBounds" />
          </mxGeometry>
        </mxCell>
        <mxCell id="6c_MEM22K-Nu2wiZAlEg-10" value="PRENDE" style="shape=table;startSize=30;container=1;collapsible=0;childLayout=tableLayout;" vertex="1" parent="1">
          <mxGeometry x="90" y="150" width="800" height="70" as="geometry" />
        </mxCell>
        <mxCell id="6c_MEM22K-Nu2wiZAlEg-11" value="" style="shape=tableRow;horizontal=0;startSize=0;swimlaneHead=0;swimlaneBody=0;strokeColor=inherit;top=0;left=0;bottom=0;right=0;collapsible=0;dropTarget=0;fillColor=none;points=[[0,0.5],[1,0.5]];portConstraint=eastwest;" vertex="1" parent="6c_MEM22K-Nu2wiZAlEg-10">
          <mxGeometry y="30" width="800" height="40" as="geometry" />
        </mxCell>
        <mxCell id="6c_MEM22K-Nu2wiZAlEg-12" value="" style="shape=partialRectangle;html=1;whiteSpace=wrap;connectable=0;strokeColor=inherit;overflow=hidden;fillColor=none;top=0;left=0;bottom=0;right=0;pointerEvents=1;" vertex="1" parent="6c_MEM22K-Nu2wiZAlEg-11">
          <mxGeometry width="160" height="40" as="geometry">
            <mxRectangle width="160" height="40" as="alternateBounds" />
          </mxGeometry>
        </mxCell>
        <mxCell id="6c_MEM22K-Nu2wiZAlEg-13" value="IDLIBRO" style="shape=partialRectangle;html=1;whiteSpace=wrap;connectable=0;strokeColor=inherit;overflow=hidden;fillColor=none;top=0;left=0;bottom=0;right=0;pointerEvents=1;" vertex="1" parent="6c_MEM22K-Nu2wiZAlEg-11">
          <mxGeometry x="160" width="160" height="40" as="geometry">
            <mxRectangle width="160" height="40" as="alternateBounds" />
          </mxGeometry>
        </mxCell>
        <mxCell id="6c_MEM22K-Nu2wiZAlEg-16" value="MATRICOLA" style="shape=partialRectangle;html=1;whiteSpace=wrap;connectable=0;strokeColor=inherit;overflow=hidden;fillColor=none;top=0;left=0;bottom=0;right=0;pointerEvents=1;" vertex="1" parent="6c_MEM22K-Nu2wiZAlEg-11">
          <mxGeometry x="320" width="160" height="40" as="geometry">
            <mxRectangle width="160" height="40" as="alternateBounds" />
          </mxGeometry>
        </mxCell>
        <mxCell id="6c_MEM22K-Nu2wiZAlEg-14" value="DATA_PRESTITO" style="shape=partialRectangle;html=1;whiteSpace=wrap;connectable=0;strokeColor=inherit;overflow=hidden;fillColor=none;top=0;left=0;bottom=0;right=0;pointerEvents=1;" vertex="1" parent="6c_MEM22K-Nu2wiZAlEg-11">
          <mxGeometry x="480" width="160" height="40" as="geometry">
            <mxRectangle width="160" height="40" as="alternateBounds" />
          </mxGeometry>
        </mxCell>
        <mxCell id="6c_MEM22K-Nu2wiZAlEg-15" value="DATA_RESTITUZIONE" style="shape=partialRectangle;html=1;whiteSpace=wrap;connectable=0;strokeColor=inherit;overflow=hidden;fillColor=none;top=0;left=0;bottom=0;right=0;pointerEvents=1;" vertex="1" parent="6c_MEM22K-Nu2wiZAlEg-11">
          <mxGeometry x="640" width="160" height="40" as="geometry">
            <mxRectangle width="160" height="40" as="alternateBounds" />
          </mxGeometry>
        </mxCell>
        <mxCell id="6c_MEM22K-Nu2wiZAlEg-17" value="UTENTE" style="shape=table;startSize=30;container=1;collapsible=0;childLayout=tableLayout;" vertex="1" parent="1">
          <mxGeometry x="27.5" y="270" width="1045" height="80" as="geometry" />
        </mxCell>
        <mxCell id="6c_MEM22K-Nu2wiZAlEg-18" value="" style="shape=tableRow;horizontal=0;startSize=0;swimlaneHead=0;swimlaneBody=0;strokeColor=inherit;top=0;left=0;bottom=0;right=0;collapsible=0;dropTarget=0;fillColor=none;points=[[0,0.5],[1,0.5]];portConstraint=eastwest;" vertex="1" parent="6c_MEM22K-Nu2wiZAlEg-17">
          <mxGeometry y="30" width="1045" height="50" as="geometry" />
        </mxCell>
        <mxCell id="6c_MEM22K-Nu2wiZAlEg-19" value="&lt;u&gt;NUM_MATRICOLA&lt;/u&gt;" style="shape=partialRectangle;html=1;whiteSpace=wrap;connectable=0;strokeColor=inherit;overflow=hidden;fillColor=none;top=0;left=0;bottom=0;right=0;pointerEvents=1;" vertex="1" parent="6c_MEM22K-Nu2wiZAlEg-18">
          <mxGeometry width="105" height="50" as="geometry">
            <mxRectangle width="105" height="50" as="alternateBounds" />
          </mxGeometry>
        </mxCell>
        <mxCell id="6c_MEM22K-Nu2wiZAlEg-20" value="COGNOME" style="shape=partialRectangle;html=1;whiteSpace=wrap;connectable=0;strokeColor=inherit;overflow=hidden;fillColor=none;top=0;left=0;bottom=0;right=0;pointerEvents=1;" vertex="1" parent="6c_MEM22K-Nu2wiZAlEg-18">
          <mxGeometry x="105" width="104" height="50" as="geometry">
            <mxRectangle width="104" height="50" as="alternateBounds" />
          </mxGeometry>
        </mxCell>
        <mxCell id="6c_MEM22K-Nu2wiZAlEg-21" value="NOME" style="shape=partialRectangle;html=1;whiteSpace=wrap;connectable=0;strokeColor=inherit;overflow=hidden;fillColor=none;top=0;left=0;bottom=0;right=0;pointerEvents=1;" vertex="1" parent="6c_MEM22K-Nu2wiZAlEg-18">
          <mxGeometry x="209" width="105" height="50" as="geometry">
            <mxRectangle width="105" height="50" as="alternateBounds" />
          </mxGeometry>
        </mxCell>
        <mxCell id="6c_MEM22K-Nu2wiZAlEg-22" value="PREFISSO" style="shape=partialRectangle;html=1;whiteSpace=wrap;connectable=0;strokeColor=inherit;overflow=hidden;fillColor=none;top=0;left=0;bottom=0;right=0;pointerEvents=1;" vertex="1" parent="6c_MEM22K-Nu2wiZAlEg-18">
          <mxGeometry x="314" width="105" height="50" as="geometry">
            <mxRectangle width="105" height="50" as="alternateBounds" />
          </mxGeometry>
        </mxCell>
        <mxCell id="6c_MEM22K-Nu2wiZAlEg-23" value="RESTO_DEL&lt;br&gt;NUMERO DI TELEFONO" style="shape=partialRectangle;html=1;whiteSpace=wrap;connectable=0;strokeColor=inherit;overflow=hidden;fillColor=none;top=0;left=0;bottom=0;right=0;pointerEvents=1;" vertex="1" parent="6c_MEM22K-Nu2wiZAlEg-18">
          <mxGeometry x="419" width="102" height="50" as="geometry">
            <mxRectangle width="102" height="50" as="alternateBounds" />
          </mxGeometry>
        </mxCell>
        <mxCell id="6c_MEM22K-Nu2wiZAlEg-24" value="VIA/VIALE/&lt;br&gt;PIAZZA,..." style="shape=partialRectangle;html=1;whiteSpace=wrap;connectable=0;strokeColor=inherit;overflow=hidden;fillColor=none;top=0;left=0;bottom=0;right=0;pointerEvents=1;" vertex="1" parent="6c_MEM22K-Nu2wiZAlEg-18">
          <mxGeometry x="521" width="105" height="50" as="geometry">
            <mxRectangle width="105" height="50" as="alternateBounds" />
          </mxGeometry>
        </mxCell>
        <mxCell id="6c_MEM22K-Nu2wiZAlEg-25" value="NOME_VIA" style="shape=partialRectangle;html=1;whiteSpace=wrap;connectable=0;strokeColor=inherit;overflow=hidden;fillColor=none;top=0;left=0;bottom=0;right=0;pointerEvents=1;" vertex="1" parent="6c_MEM22K-Nu2wiZAlEg-18">
          <mxGeometry x="626" width="105" height="50" as="geometry">
            <mxRectangle width="105" height="50" as="alternateBounds" />
          </mxGeometry>
        </mxCell>
        <mxCell id="6c_MEM22K-Nu2wiZAlEg-26" value="NUMERO_CIVICO" style="shape=partialRectangle;html=1;whiteSpace=wrap;connectable=0;strokeColor=inherit;overflow=hidden;fillColor=none;top=0;left=0;bottom=0;right=0;pointerEvents=1;" vertex="1" parent="6c_MEM22K-Nu2wiZAlEg-18">
          <mxGeometry x="731" width="104" height="50" as="geometry">
            <mxRectangle width="104" height="50" as="alternateBounds" />
          </mxGeometry>
        </mxCell>
        <mxCell id="6c_MEM22K-Nu2wiZAlEg-27" value="CAP" style="shape=partialRectangle;html=1;whiteSpace=wrap;connectable=0;strokeColor=inherit;overflow=hidden;fillColor=none;top=0;left=0;bottom=0;right=0;pointerEvents=1;" vertex="1" parent="6c_MEM22K-Nu2wiZAlEg-18">
          <mxGeometry x="835" width="105" height="50" as="geometry">
            <mxRectangle width="105" height="50" as="alternateBounds" />
          </mxGeometry>
        </mxCell>
        <mxCell id="Ysk1sQVVxaEejLZU4qCY-1" value="CITTA&#39;" style="shape=partialRectangle;html=1;whiteSpace=wrap;connectable=0;strokeColor=inherit;overflow=hidden;fillColor=none;top=0;left=0;bottom=0;right=0;pointerEvents=1;" vertex="1" parent="6c_MEM22K-Nu2wiZAlEg-18">
          <mxGeometry x="940" width="105" height="50" as="geometry">
            <mxRectangle width="105" height="50" as="alternateBounds" />
          </mxGeometry>
        </mxCell>
        <mxCell id="I8d-TDGh9-ZDGsxNtOUW-1" value="AUTORE" style="shape=table;startSize=30;container=1;collapsible=0;childLayout=tableLayout;" vertex="1" parent="1">
          <mxGeometry x="27.5" y="390" width="1050" height="70" as="geometry" />
        </mxCell>
        <mxCell id="I8d-TDGh9-ZDGsxNtOUW-2" value="" style="shape=tableRow;horizontal=0;startSize=0;swimlaneHead=0;swimlaneBody=0;strokeColor=inherit;top=0;left=0;bottom=0;right=0;collapsible=0;dropTarget=0;fillColor=none;points=[[0,0.5],[1,0.5]];portConstraint=eastwest;" vertex="1" parent="I8d-TDGh9-ZDGsxNtOUW-1">
          <mxGeometry y="30" width="1050" height="40" as="geometry" />
        </mxCell>
        <mxCell id="I8d-TDGh9-ZDGsxNtOUW-3" value="&lt;u&gt;ID_AUTORE&lt;/u&gt;" style="shape=partialRectangle;html=1;whiteSpace=wrap;connectable=0;strokeColor=inherit;overflow=hidden;fillColor=none;top=0;left=0;bottom=0;right=0;pointerEvents=1;" vertex="1" parent="I8d-TDGh9-ZDGsxNtOUW-2">
          <mxGeometry width="175" height="40" as="geometry">
            <mxRectangle width="175" height="40" as="alternateBounds" />
          </mxGeometry>
        </mxCell>
        <mxCell id="I8d-TDGh9-ZDGsxNtOUW-4" value="NOME" style="shape=partialRectangle;html=1;whiteSpace=wrap;connectable=0;strokeColor=inherit;overflow=hidden;fillColor=none;top=0;left=0;bottom=0;right=0;pointerEvents=1;" vertex="1" parent="I8d-TDGh9-ZDGsxNtOUW-2">
          <mxGeometry x="175" width="175" height="40" as="geometry">
            <mxRectangle width="175" height="40" as="alternateBounds" />
          </mxGeometry>
        </mxCell>
        <mxCell id="I8d-TDGh9-ZDGsxNtOUW-5" value="LUOGO_NASCITA" style="shape=partialRectangle;html=1;whiteSpace=wrap;connectable=0;strokeColor=inherit;overflow=hidden;fillColor=none;top=0;left=0;bottom=0;right=0;pointerEvents=1;" vertex="1" parent="I8d-TDGh9-ZDGsxNtOUW-2">
          <mxGeometry x="350" width="175" height="40" as="geometry">
            <mxRectangle width="175" height="40" as="alternateBounds" />
          </mxGeometry>
        </mxCell>
        <mxCell id="I8d-TDGh9-ZDGsxNtOUW-6" value="GIORNO_NASCITA&#39;&lt;br&gt;(GG)" style="shape=partialRectangle;html=1;whiteSpace=wrap;connectable=0;strokeColor=inherit;overflow=hidden;fillColor=none;top=0;left=0;bottom=0;right=0;pointerEvents=1;" vertex="1" parent="I8d-TDGh9-ZDGsxNtOUW-2">
          <mxGeometry x="525" width="175" height="40" as="geometry">
            <mxRectangle width="175" height="40" as="alternateBounds" />
          </mxGeometry>
        </mxCell>
        <mxCell id="I8d-TDGh9-ZDGsxNtOUW-7" value="MESE_NASCITA&#39;&lt;br&gt;(MM)" style="shape=partialRectangle;html=1;whiteSpace=wrap;connectable=0;strokeColor=inherit;overflow=hidden;fillColor=none;top=0;left=0;bottom=0;right=0;pointerEvents=1;" vertex="1" parent="I8d-TDGh9-ZDGsxNtOUW-2">
          <mxGeometry x="700" width="175" height="40" as="geometry">
            <mxRectangle width="175" height="40" as="alternateBounds" />
          </mxGeometry>
        </mxCell>
        <mxCell id="I8d-TDGh9-ZDGsxNtOUW-8" value="ANNO_NASCITA&#39;&lt;br&gt;(AAAA)" style="shape=partialRectangle;html=1;whiteSpace=wrap;connectable=0;strokeColor=inherit;overflow=hidden;fillColor=none;top=0;left=0;bottom=0;right=0;pointerEvents=1;" vertex="1" parent="I8d-TDGh9-ZDGsxNtOUW-2">
          <mxGeometry x="875" width="175" height="40" as="geometry">
            <mxRectangle width="175" height="40" as="alternateBounds" />
          </mxGeometry>
        </mxCell>
        <mxCell id="I8d-TDGh9-ZDGsxNtOUW-18" value="SUCCURSALE" style="shape=table;startSize=30;container=1;collapsible=0;childLayout=tableLayout;" vertex="1" parent="1">
          <mxGeometry x="27.5" y="510" width="1062.5" height="70" as="geometry" />
        </mxCell>
        <mxCell id="I8d-TDGh9-ZDGsxNtOUW-19" value="" style="shape=tableRow;horizontal=0;startSize=0;swimlaneHead=0;swimlaneBody=0;strokeColor=inherit;top=0;left=0;bottom=0;right=0;collapsible=0;dropTarget=0;fillColor=none;points=[[0,0.5],[1,0.5]];portConstraint=eastwest;" vertex="1" parent="I8d-TDGh9-ZDGsxNtOUW-18">
          <mxGeometry y="30" width="1062.5" height="40" as="geometry" />
        </mxCell>
        <mxCell id="I8d-TDGh9-ZDGsxNtOUW-20" value="&lt;u&gt;ID_SUCCURSALE&lt;/u&gt;" style="shape=partialRectangle;html=1;whiteSpace=wrap;connectable=0;strokeColor=inherit;overflow=hidden;fillColor=none;top=0;left=0;bottom=0;right=0;pointerEvents=1;" vertex="1" parent="I8d-TDGh9-ZDGsxNtOUW-19">
          <mxGeometry width="133" height="40" as="geometry">
            <mxRectangle width="133" height="40" as="alternateBounds" />
          </mxGeometry>
        </mxCell>
        <mxCell id="I8d-TDGh9-ZDGsxNtOUW-21" value="IDDIPARTIMENTO" style="shape=partialRectangle;html=1;whiteSpace=wrap;connectable=0;strokeColor=inherit;overflow=hidden;fillColor=none;top=0;left=0;bottom=0;right=0;pointerEvents=1;" vertex="1" parent="I8d-TDGh9-ZDGsxNtOUW-19">
          <mxGeometry x="133" width="133" height="40" as="geometry">
            <mxRectangle width="133" height="40" as="alternateBounds" />
          </mxGeometry>
        </mxCell>
        <mxCell id="I8d-TDGh9-ZDGsxNtOUW-22" value="NOME_SUCCURSALE" style="shape=partialRectangle;html=1;whiteSpace=wrap;connectable=0;strokeColor=inherit;overflow=hidden;fillColor=none;top=0;left=0;bottom=0;right=0;pointerEvents=1;" vertex="1" parent="I8d-TDGh9-ZDGsxNtOUW-19">
          <mxGeometry x="266" width="132" height="40" as="geometry">
            <mxRectangle width="132" height="40" as="alternateBounds" />
          </mxGeometry>
        </mxCell>
        <mxCell id="I8d-TDGh9-ZDGsxNtOUW-23" value="VIA/VIALE&lt;br&gt;PIAZZA,..." style="shape=partialRectangle;html=1;whiteSpace=wrap;connectable=0;strokeColor=inherit;overflow=hidden;fillColor=none;top=0;left=0;bottom=0;right=0;pointerEvents=1;" vertex="1" parent="I8d-TDGh9-ZDGsxNtOUW-19">
          <mxGeometry x="398" width="133" height="40" as="geometry">
            <mxRectangle width="133" height="40" as="alternateBounds" />
          </mxGeometry>
        </mxCell>
        <mxCell id="I8d-TDGh9-ZDGsxNtOUW-24" value="NOME_VIA" style="shape=partialRectangle;html=1;whiteSpace=wrap;connectable=0;strokeColor=inherit;overflow=hidden;fillColor=none;top=0;left=0;bottom=0;right=0;pointerEvents=1;" vertex="1" parent="I8d-TDGh9-ZDGsxNtOUW-19">
          <mxGeometry x="531" width="133" height="40" as="geometry">
            <mxRectangle width="133" height="40" as="alternateBounds" />
          </mxGeometry>
        </mxCell>
        <mxCell id="I8d-TDGh9-ZDGsxNtOUW-25" value="NUMERO_CIVICO" style="shape=partialRectangle;html=1;whiteSpace=wrap;connectable=0;strokeColor=inherit;overflow=hidden;fillColor=none;top=0;left=0;bottom=0;right=0;pointerEvents=1;" vertex="1" parent="I8d-TDGh9-ZDGsxNtOUW-19">
          <mxGeometry x="664" width="133" height="40" as="geometry">
            <mxRectangle width="133" height="40" as="alternateBounds" />
          </mxGeometry>
        </mxCell>
        <mxCell id="I8d-TDGh9-ZDGsxNtOUW-26" value="CAP" style="shape=partialRectangle;html=1;whiteSpace=wrap;connectable=0;strokeColor=inherit;overflow=hidden;fillColor=none;top=0;left=0;bottom=0;right=0;pointerEvents=1;" vertex="1" parent="I8d-TDGh9-ZDGsxNtOUW-19">
          <mxGeometry x="797" width="133" height="40" as="geometry">
            <mxRectangle width="133" height="40" as="alternateBounds" />
          </mxGeometry>
        </mxCell>
        <mxCell id="I8d-TDGh9-ZDGsxNtOUW-27" value="CITTA&#39;" style="shape=partialRectangle;html=1;whiteSpace=wrap;connectable=0;strokeColor=inherit;overflow=hidden;fillColor=none;top=0;left=0;bottom=0;right=0;pointerEvents=1;" vertex="1" parent="I8d-TDGh9-ZDGsxNtOUW-19">
          <mxGeometry x="930" width="132" height="40" as="geometry">
            <mxRectangle width="132" height="40" as="alternateBounds" />
          </mxGeometry>
        </mxCell>
        <mxCell id="I8d-TDGh9-ZDGsxNtOUW-28" value="DIPARTIMENTO" style="shape=table;startSize=30;container=1;collapsible=0;childLayout=tableLayout;" vertex="1" parent="1">
          <mxGeometry x="27.5" y="650" width="520" height="70" as="geometry" />
        </mxCell>
        <mxCell id="I8d-TDGh9-ZDGsxNtOUW-29" value="" style="shape=tableRow;horizontal=0;startSize=0;swimlaneHead=0;swimlaneBody=0;strokeColor=inherit;top=0;left=0;bottom=0;right=0;collapsible=0;dropTarget=0;fillColor=none;points=[[0,0.5],[1,0.5]];portConstraint=eastwest;" vertex="1" parent="I8d-TDGh9-ZDGsxNtOUW-28">
          <mxGeometry y="30" width="520" height="40" as="geometry" />
        </mxCell>
        <mxCell id="I8d-TDGh9-ZDGsxNtOUW-30" value="&lt;u&gt;ID_DIPARTIMENTO&lt;/u&gt;" style="shape=partialRectangle;html=1;whiteSpace=wrap;connectable=0;strokeColor=inherit;overflow=hidden;fillColor=none;top=0;left=0;bottom=0;right=0;pointerEvents=1;" vertex="1" parent="I8d-TDGh9-ZDGsxNtOUW-29">
          <mxGeometry width="260" height="40" as="geometry">
            <mxRectangle width="260" height="40" as="alternateBounds" />
          </mxGeometry>
        </mxCell>
        <mxCell id="I8d-TDGh9-ZDGsxNtOUW-31" value="NOME" style="shape=partialRectangle;html=1;whiteSpace=wrap;connectable=0;strokeColor=inherit;overflow=hidden;fillColor=none;top=0;left=0;bottom=0;right=0;pointerEvents=1;" vertex="1" parent="I8d-TDGh9-ZDGsxNtOUW-29">
          <mxGeometry x="260" width="260" height="40" as="geometry">
            <mxRectangle width="260" height="40" as="alternateBounds" />
          </mxGeometry>
        </mxCell>
        <mxCell id="I8d-TDGh9-ZDGsxNtOUW-32" value="" style="endArrow=classic;html=1;rounded=0;exitX=0.484;exitY=1.033;exitDx=0;exitDy=0;entryX=0.077;entryY=0.04;entryDx=0;entryDy=0;entryPerimeter=0;exitPerimeter=0;" edge="1" parent="1" source="6c_MEM22K-Nu2wiZAlEg-11" target="6c_MEM22K-Nu2wiZAlEg-18">
          <mxGeometry width="50" height="50" relative="1" as="geometry">
            <mxPoint x="110" y="320" as="sourcePoint" />
            <mxPoint x="160" y="260" as="targetPoint" />
            <Array as="points" />
          </mxGeometry>
        </mxCell>
        <mxCell id="I8d-TDGh9-ZDGsxNtOUW-35" value="PK" style="text;html=1;strokeColor=none;fillColor=none;align=center;verticalAlign=middle;whiteSpace=wrap;rounded=0;" vertex="1" parent="1">
          <mxGeometry x="54" y="110" width="60" height="30" as="geometry" />
        </mxCell>
        <mxCell id="I8d-TDGh9-ZDGsxNtOUW-36" value="PK" style="text;html=1;strokeColor=none;fillColor=none;align=center;verticalAlign=middle;whiteSpace=wrap;rounded=0;" vertex="1" parent="1">
          <mxGeometry x="240" y="230" width="60" height="30" as="geometry" />
        </mxCell>
        <mxCell id="I8d-TDGh9-ZDGsxNtOUW-37" value="PK" style="text;html=1;strokeColor=none;fillColor=none;align=center;verticalAlign=middle;whiteSpace=wrap;rounded=0;" vertex="1" parent="1">
          <mxGeometry x="54" y="350" width="60" height="30" as="geometry" />
        </mxCell>
        <mxCell id="I8d-TDGh9-ZDGsxNtOUW-38" value="PK" style="text;html=1;strokeColor=none;fillColor=none;align=center;verticalAlign=middle;whiteSpace=wrap;rounded=0;" vertex="1" parent="1">
          <mxGeometry x="64" y="460" width="60" height="30" as="geometry" />
        </mxCell>
        <mxCell id="I8d-TDGh9-ZDGsxNtOUW-39" value="PK" style="text;html=1;strokeColor=none;fillColor=none;align=center;verticalAlign=middle;whiteSpace=wrap;rounded=0;" vertex="1" parent="1">
          <mxGeometry x="70" y="580" width="60" height="30" as="geometry" />
        </mxCell>
        <mxCell id="I8d-TDGh9-ZDGsxNtOUW-40" value="PK" style="text;html=1;strokeColor=none;fillColor=none;align=center;verticalAlign=middle;whiteSpace=wrap;rounded=0;" vertex="1" parent="1">
          <mxGeometry x="70" y="720" width="60" height="30" as="geometry" />
        </mxCell>
        <mxCell id="I8d-TDGh9-ZDGsxNtOUW-41" value="FK" style="text;html=1;strokeColor=none;fillColor=none;align=center;verticalAlign=middle;whiteSpace=wrap;rounded=0;" vertex="1" parent="1">
          <mxGeometry x="160" y="110" width="60" height="30" as="geometry" />
        </mxCell>
        <mxCell id="I8d-TDGh9-ZDGsxNtOUW-42" value="PK" style="text;html=1;strokeColor=none;fillColor=none;align=center;verticalAlign=middle;whiteSpace=wrap;rounded=0;" vertex="1" parent="1">
          <mxGeometry x="420" y="230" width="60" height="30" as="geometry" />
        </mxCell>
        <mxCell id="I8d-TDGh9-ZDGsxNtOUW-43" value="FK" style="text;html=1;strokeColor=none;fillColor=none;align=center;verticalAlign=middle;whiteSpace=wrap;rounded=0;" vertex="1" parent="1">
          <mxGeometry x="200" y="580" width="60" height="30" as="geometry" />
        </mxCell>
        <mxCell id="I8d-TDGh9-ZDGsxNtOUW-45" value="" style="endArrow=classic;html=1;rounded=0;entryX=0.281;entryY=-0.017;entryDx=0;entryDy=0;entryPerimeter=0;exitX=1;exitY=0;exitDx=0;exitDy=0;" edge="1" parent="1" source="I8d-TDGh9-ZDGsxNtOUW-43" target="I8d-TDGh9-ZDGsxNtOUW-29">
          <mxGeometry width="50" height="50" relative="1" as="geometry">
            <mxPoint x="170" y="700" as="sourcePoint" />
            <mxPoint x="270" y="600" as="targetPoint" />
          </mxGeometry>
        </mxCell>
        <mxCell id="I8d-TDGh9-ZDGsxNtOUW-46" value="" style="endArrow=classic;html=1;rounded=0;entryX=0.078;entryY=-0.017;entryDx=0;entryDy=0;entryPerimeter=0;exitX=0.195;exitY=0.967;exitDx=0;exitDy=0;exitPerimeter=0;" edge="1" parent="1" source="6c_MEM22K-Nu2wiZAlEg-3" target="I8d-TDGh9-ZDGsxNtOUW-19">
          <mxGeometry width="50" height="50" relative="1" as="geometry">
            <mxPoint x="90" y="550" as="sourcePoint" />
            <mxPoint x="170" y="90" as="targetPoint" />
          </mxGeometry>
        </mxCell>
        <mxCell id="EGV4NBhrDz2_3cIE0lMo-1" value="E&#39;_SCRITTO" style="shape=table;startSize=30;container=1;collapsible=0;childLayout=tableLayout;" vertex="1" parent="1">
          <mxGeometry x="690" y="757" width="240" height="70" as="geometry" />
        </mxCell>
        <mxCell id="EGV4NBhrDz2_3cIE0lMo-2" value="" style="shape=tableRow;horizontal=0;startSize=0;swimlaneHead=0;swimlaneBody=0;strokeColor=inherit;top=0;left=0;bottom=0;right=0;collapsible=0;dropTarget=0;fillColor=none;points=[[0,0.5],[1,0.5]];portConstraint=eastwest;" vertex="1" parent="EGV4NBhrDz2_3cIE0lMo-1">
          <mxGeometry y="30" width="240" height="40" as="geometry" />
        </mxCell>
        <mxCell id="EGV4NBhrDz2_3cIE0lMo-3" value="" style="shape=partialRectangle;html=1;whiteSpace=wrap;connectable=0;strokeColor=inherit;overflow=hidden;fillColor=none;top=0;left=0;bottom=0;right=0;pointerEvents=1;" vertex="1" parent="EGV4NBhrDz2_3cIE0lMo-2">
          <mxGeometry width="80" height="40" as="geometry">
            <mxRectangle width="80" height="40" as="alternateBounds" />
          </mxGeometry>
        </mxCell>
        <mxCell id="EGV4NBhrDz2_3cIE0lMo-4" value="IDLIBRO" style="shape=partialRectangle;html=1;whiteSpace=wrap;connectable=0;strokeColor=inherit;overflow=hidden;fillColor=none;top=0;left=0;bottom=0;right=0;pointerEvents=1;" vertex="1" parent="EGV4NBhrDz2_3cIE0lMo-2">
          <mxGeometry x="80" width="80" height="40" as="geometry">
            <mxRectangle width="80" height="40" as="alternateBounds" />
          </mxGeometry>
        </mxCell>
        <mxCell id="EGV4NBhrDz2_3cIE0lMo-5" value="IDAUTORE" style="shape=partialRectangle;html=1;whiteSpace=wrap;connectable=0;strokeColor=inherit;overflow=hidden;fillColor=none;top=0;left=0;bottom=0;right=0;pointerEvents=1;" vertex="1" parent="EGV4NBhrDz2_3cIE0lMo-2">
          <mxGeometry x="160" width="80" height="40" as="geometry">
            <mxRectangle width="80" height="40" as="alternateBounds" />
          </mxGeometry>
        </mxCell>
        <mxCell id="I8d-TDGh9-ZDGsxNtOUW-44" value="" style="endArrow=classic;html=1;rounded=0;entryX=0.128;entryY=1.05;entryDx=0;entryDy=0;entryPerimeter=0;exitX=0.293;exitY=-0.033;exitDx=0;exitDy=0;exitPerimeter=0;" edge="1" parent="1" source="6c_MEM22K-Nu2wiZAlEg-11" target="6c_MEM22K-Nu2wiZAlEg-3">
          <mxGeometry width="50" height="50" relative="1" as="geometry">
            <mxPoint x="90" y="100" as="sourcePoint" />
            <mxPoint x="130" y="60" as="targetPoint" />
          </mxGeometry>
        </mxCell>
        <mxCell id="EGV4NBhrDz2_3cIE0lMo-7" value="" style="endArrow=classic;html=1;rounded=0;entryX=0.097;entryY=0.967;entryDx=0;entryDy=0;entryPerimeter=0;exitX=0.501;exitY=-0.042;exitDx=0;exitDy=0;exitPerimeter=0;" edge="1" parent="1" source="EGV4NBhrDz2_3cIE0lMo-2" target="6c_MEM22K-Nu2wiZAlEg-3">
          <mxGeometry width="50" height="50" relative="1" as="geometry">
            <mxPoint x="69" y="100" as="sourcePoint" />
            <mxPoint x="119" y="50" as="targetPoint" />
          </mxGeometry>
        </mxCell>
        <mxCell id="EGV4NBhrDz2_3cIE0lMo-6" value="" style="endArrow=classic;html=1;rounded=0;entryX=0.117;entryY=1.05;entryDx=0;entryDy=0;entryPerimeter=0;exitX=0.917;exitY=0.075;exitDx=0;exitDy=0;exitPerimeter=0;" edge="1" parent="1" source="EGV4NBhrDz2_3cIE0lMo-2" target="I8d-TDGh9-ZDGsxNtOUW-2">
          <mxGeometry width="50" height="50" relative="1" as="geometry">
            <mxPoint x="140" y="450" as="sourcePoint" />
            <mxPoint x="190" y="400" as="targetPoint" />
          </mxGeometry>
        </mxCell>
        <mxCell id="UzQCga1_LRrYbQDJ2v3P-2" value="COGNOME" style="shape=partialRectangle;html=1;whiteSpace=wrap;connectable=0;strokeColor=default;overflow=hidden;fillColor=none;top=0;left=0;bottom=0;right=0;pointerEvents=1;" vertex="1" parent="1">
          <mxGeometry x="1064" y="300" width="105" height="50" as="geometry">
            <mxRectangle width="105" height="50" as="alternateBounds" />
          </mxGeometry>
        </mxCell>
      </root>
    </mxGraphModel>
  </diagram>
</mxfile>
